<?xml version="1.0" encoding="UTF-8" standalone="no"?>
<svg
   xmlns:dc="http://purl.org/dc/elements/1.1/"
   xmlns:cc="http://creativecommons.org/ns#"
   xmlns:rdf="http://www.w3.org/1999/02/22-rdf-syntax-ns#"
   xmlns:svg="http://www.w3.org/2000/svg"
   xmlns="http://www.w3.org/2000/svg"
   xmlns:sodipodi="http://sodipodi.sourceforge.net/DTD/sodipodi-0.dtd"
   xmlns:inkscape="http://www.inkscape.org/namespaces/inkscape"
   height="48"
   viewBox="0 -960 960 960"
   width="48"
   version="1.1"
   id="svg4530"
   sodipodi:docname="cemetery_FILL0_wght400_GRAD0_opsz48_edit.svg"
   inkscape:version="0.92.4 (5da689c313, 2019-01-14)"
   inkscape:export-filename="C:\Users\brian.huckaby\Downloads\map\images\glyphs\cemetery_FILL0_wght500_GRAD0_opsz48.png"
   inkscape:export-xdpi="300"
   inkscape:export-ydpi="300">
  <metadata
     id="metadata4536">
    <rdf:RDF>
      <cc:Work
         rdf:about="">
        <dc:format>image/svg+xml</dc:format>
        <dc:type
           rdf:resource="http://purl.org/dc/dcmitype/StillImage" />
        <dc:title />
      </cc:Work>
    </rdf:RDF>
  </metadata>
  <defs
     id="defs4534">
    <mask
       maskUnits="userSpaceOnUse"
       id="mask6912">
      <g
         id="g6918">
        <rect
           y="-842.26416"
           x="158.49057"
           height="730.18866"
           width="647.54712"
           id="rect6914"
           style="fill:#ffffff;fill-opacity:1;stroke:none;stroke-width:20;stroke-linecap:butt;stroke-miterlimit:4;stroke-dasharray:none;stroke-dashoffset:0;stroke-opacity:1" />
        <rect
           clip-path="none"
           mask="none"
           y="-587.54718"
           x="517.35852"
           height="448.30188"
           width="266.03775"
           id="rect6916"
           style="fill:#000000;fill-opacity:1;stroke:none;stroke-width:125.1163559;stroke-linecap:butt;stroke-miterlimit:4;stroke-dasharray:none;stroke-dashoffset:0;stroke-opacity:1" />
      </g>
    </mask>
    <mask
       maskUnits="userSpaceOnUse"
       id="mask6926">
      <g
         id="g6932">
        <rect
           y="-612.45282"
           x="16.981133"
           height="480"
           width="440.37735"
           id="rect6928"
           style="fill:#ffffff;fill-opacity:1;stroke:none;stroke-width:20;stroke-linecap:butt;stroke-miterlimit:4;stroke-dasharray:none;stroke-dashoffset:0;stroke-opacity:1" />
        <rect
           y="-587.54718"
           x="173.77356"
           height="448.30188"
           width="266.03778"
           id="rect6930"
           style="fill:#000000;fill-opacity:1;stroke:none;stroke-width:125.1163559;stroke-linecap:butt;stroke-miterlimit:4;stroke-dasharray:none;stroke-dashoffset:0;stroke-opacity:1" />
      </g>
    </mask>
  </defs>
  <sodipodi:namedview
     pagecolor="#ffffff"
     bordercolor="#666666"
     borderopacity="1"
     objecttolerance="10"
     gridtolerance="10"
     guidetolerance="10"
     inkscape:pageopacity="0"
     inkscape:pageshadow="2"
     inkscape:window-width="1920"
     inkscape:window-height="1017"
     id="namedview4532"
     showgrid="false"
     inkscape:zoom="17.666667"
     inkscape:cx="14.349057"
     inkscape:cy="24"
     inkscape:window-x="1912"
     inkscape:window-y="-8"
     inkscape:window-maximized="1"
     inkscape:current-layer="layer4" />
  <g
     inkscape:groupmode="layer"
     id="layer4"
     inkscape:label="BGTest" />
  <g
     inkscape:groupmode="layer"
     id="layer1"
     inkscape:label="miniBottom">
    <path
       d="m 302.84665,-564.78178 c 26.31955,0 48.67028,10.02943 67.05219,30.08833 18.38191,20.0589 27.57286,44.61376 27.57286,73.66459 v 311.25883 H 44.037734 c 0,-62.1793 0,-129.46279 0,-193.67216 v -117.58667 c 0,-29.05083 9.190956,-53.60569 27.572862,-73.66459 18.381907,-20.0589 40.732644,-30.08833 67.052194,-30.08833 z m 0,41.50115 H 138.67658 c -15.04894,0 -28.31775,6.34046 -39.806449,19.02138 -11.488691,12.68091 -17.23304,27.09105 -17.23304,43.23039 v 269.75765 H 359.87234 v -269.75765 c 0,-16.13934 -5.84879,-30.54948 -17.54636,-43.23039 -11.69758,-12.68092 -24.85735,-19.02138 -39.47933,-19.02138 z"
       id="path4528-6"
       inkscape:connector-curvature="0"
       sodipodi:nodetypes="ssscccssssssssccsss"
       style="stroke-width:0.65836865"
       mask="url(#mask6926)" />
  </g>
  <g
     inkscape:groupmode="layer"
     id="layer2"
     inkscape:label="big"
     sodipodi:insensitive="true">
    <path
       d="m 616.66038,-811.13208 c 42,0 77.66667,16.00472 107,48.01414 29.33333,32.00943 44,71.1934 44,117.55189 v 496.69812 h -564 c 0,-99.22399 0,-206.59309 0,-309.05661 v -187.64151 c 0,-46.35849 14.66667,-85.54246 44,-117.55189 29.33333,-32.00942 65,-48.01414 107,-48.01414 z m 0,66.22641 h -261.978 c -24.01467,0 -45.18867,10.11793 -63.522,30.35378 -18.33333,20.23584 -27.5,43.23113 -27.5,68.98585 v 430.4717 h 444 v -430.4717 c 0,-25.75472 -9.33333,-48.75001 -28,-68.98585 -18.66667,-20.23585 -39.66667,-30.35378 -63,-30.35378 z"
       id="path4528"
       inkscape:connector-curvature="0"
       sodipodi:nodetypes="ssscccssssssssccsss"
       style="fill:#000000;fill-opacity:1;stroke-width:1.05060625"
       mask="url(#mask6912)"
       clip-path="none" />
  </g>
  <g
     inkscape:groupmode="layer"
     id="layer3"
     inkscape:label="miniTop"
     sodipodi:insensitive="true">
    <path
       d="m 821.33723,-563.87967 c 26.31954,0 48.67028,10.02944 67.05218,30.08834 18.38192,20.0589 27.57286,44.61376 27.57286,73.66459 v 311.25882 H 562.52831 c 0,-62.1793 0,-129.46278 0,-193.67216 v -117.58666 c 0,-29.05083 9.19095,-53.60569 27.57286,-73.66459 18.3819,-20.0589 40.73264,-30.08834 67.05219,-30.08834 z m 0,41.50116 H 657.16715 c -15.04894,0 -28.31775,6.34046 -39.80645,19.02138 -11.48869,12.68091 -17.23304,27.09105 -17.23304,43.23039 v 269.75764 h 278.23525 v -269.75764 c 0,-16.13934 -5.84878,-30.54948 -17.54636,-43.23039 -11.69758,-12.68092 -24.85734,-19.02138 -39.47932,-19.02138 z"
       id="path4528-6-9"
       inkscape:connector-curvature="0"
       sodipodi:nodetypes="ssscccssssssssccsss"
       style="stroke-width:0.65836859" />
  </g>
</svg>
