<?xml version="1.0" encoding="UTF-8" standalone="no"?>
<svg
   xmlns:dc="http://purl.org/dc/elements/1.1/"
   xmlns:cc="http://creativecommons.org/ns#"
   xmlns:rdf="http://www.w3.org/1999/02/22-rdf-syntax-ns#"
   xmlns:svg="http://www.w3.org/2000/svg"
   xmlns="http://www.w3.org/2000/svg"
   xmlns:sodipodi="http://sodipodi.sourceforge.net/DTD/sodipodi-0.dtd"
   xmlns:inkscape="http://www.inkscape.org/namespaces/inkscape"
   height="48"
   viewBox="0 -960 960 960"
   width="48"
   version="1.1"
   id="svg5735"
   sodipodi:docname="seesaw_FILL0_wght400_GRAD0_opsz48.svg"
   inkscape:version="0.92.4 (5da689c313, 2019-01-14)"
   inkscape:export-filename="C:\Users\brian.huckaby\Downloads\map\images\glyphs\seesaw_FILL0_wght400_GRAD0_opsz48.png"
   inkscape:export-xdpi="300"
   inkscape:export-ydpi="300">
  <metadata
     id="metadata5741">
    <rdf:RDF>
      <cc:Work
         rdf:about="">
        <dc:format>image/svg+xml</dc:format>
        <dc:type
           rdf:resource="http://purl.org/dc/dcmitype/StillImage" />
        <dc:title></dc:title>
      </cc:Work>
    </rdf:RDF>
  </metadata>
  <defs
     id="defs5739" />
  <sodipodi:namedview
     pagecolor="#ffffff"
     bordercolor="#666666"
     borderopacity="1"
     objecttolerance="10"
     gridtolerance="10"
     guidetolerance="10"
     inkscape:pageopacity="0"
     inkscape:pageshadow="2"
     inkscape:window-width="1920"
     inkscape:window-height="1017"
     id="namedview5737"
     showgrid="false"
     inkscape:zoom="9.8333333"
     inkscape:cx="18.495193"
     inkscape:cy="16.399701"
     inkscape:window-x="1912"
     inkscape:window-y="-8"
     inkscape:window-maximized="1"
     inkscape:current-layer="svg5735" />
  <path
     d="m 473.76752,-362.82182 c -5.15401,-1.15075 -10.67367,-2.67351 -16.55898,-4.56823 l -365.772012,-122.09128 6.819125,-20.96584 93.788287,31.23452 15.34065,-46.89651 -93.23506,-31.22979 6.81911,-20.96584 43.0334,14.20096 0.81155,-94.60256 118.27492,-49.88639 c 2.59124,-1.08432 5.0871,-1.80061 7.48761,-2.14886 2.40049,-0.34826 5.07601,-0.50973 8.02659,-0.48443 11.80227,0.10123 20.70505,4.97266 26.70833,14.6142 6.00327,9.64156 7.11495,19.79441 3.33498,30.45857 l -26.69004,79.99548 57.05876,-8.36286 c 8.49554,-1.40251 16.59774,0.0501 24.30659,4.35806 7.70886,4.30788 13.37416,10.35025 16.99593,18.12713 l 46.15142,102.19798 41.92692,14.19148 -6.81912,20.96583 -75.58387,-24.99235 -15.88914,46.33853 74.47741,24.98288 c 4.77886,1.88523 9.37805,3.21566 13.79757,3.99127 z m -104.62989,-57.33131 15.89389,-46.89179 -157.23431,-52.24987 -15.34066,46.89653 z m 34.29765,-63.88534 -32.5769,-72.20484 -112.5148,23.37876 z m -168.26572,-56.21741 c -4.01274,-5.19829 -6.72668,-11.30757 -8.14186,-18.32783 -1.41521,-7.02024 -0.9878,-13.84027 1.28207,-20.46007 l 26.70427,-81.65518 -57.19166,23.85335 -0.71663,83.53792 z M 336.9845,-735.24077 c -11.06463,-0.095 -20.52775,-4.14121 -28.38939,-12.13889 -7.86162,-7.99767 -11.74498,-17.52881 -11.65006,-28.59346 0.095,-11.06463 4.14122,-20.52774 12.1389,-28.38938 7.99768,-7.86162 17.52882,-11.74498 28.59346,-11.65004 11.06462,0.095 20.52773,4.1412 28.38937,12.13888 7.86162,7.99766 11.74496,17.52881 11.65006,28.59346 -0.095,11.06463 -4.14122,20.52775 -12.1389,28.38937 -7.99768,7.86163 -17.52881,11.74499 -28.59344,11.65006 z"
     id="path5733"
     inkscape:connector-curvature="0"
     sodipodi:nodetypes="cccccccccccssscccscccccccccccccccccccscccccsssssssss"
     style="stroke-width:0.55325168" />
  <path
     d="m 443.12863,-373.29785 c 4.7796,2.24571 10.07607,4.42127 15.88939,6.52652 l 363.95129,127.41625 7.44502,-20.75184 -93.27791,-32.72727 16.58382,-46.47147 92.83758,32.3923 7.44503,-20.75181 -42.71929,-15.11967 57.27991,-75.29486 -62.9711,-111.85816 c -1.3849,-2.44383 -2.9197,-4.5383 -4.60446,-6.28339 -1.68482,-1.745 -3.70129,-3.51087 -6.04965,-5.29739 -9.39352,-7.14602 -19.41513,-8.74527 -30.06479,-4.79771 -10.64969,3.94756 -17.74483,11.29432 -21.28545,22.04033 l -27.87558,79.59012 -39.99353,-41.54705 c -5.85834,-6.31039 -13.15381,-10.1225 -21.88639,-11.43628 -8.73261,-1.31378 -16.91142,-0.004 -24.53649,3.92633 l -99.06178,52.54658 -41.83865,-14.44971 -7.44498,20.75184 75.06262,26.51679 -15.8085,46.36612 -74.18201,-25.84687 c -4.93273,-1.43527 -9.3836,-3.19933 -13.3528,-5.292 z m 117.82791,18.73161 16.14349,-46.80646 156.30869,54.95699 -16.58381,46.47147 z m 11.99697,-71.5104 69.96539,-37.14351 74.64643,87.37305 z m 167.4599,58.57414 c 6.35543,-1.65322 12.24169,-4.82192 17.65885,-9.50606 5.41716,-4.6841 9.25489,-10.33807 11.51326,-16.9618 l 28.88049,-80.91108 30.61436,53.87605 -50.58049,66.48844 z m 38.88137,-216.50322 c 8.80644,6.69944 18.76589,9.29413 29.87841,7.7841 11.11249,-1.51004 20.01845,-6.66825 26.71785,-15.47467 6.69941,-8.80642 9.2941,-18.76588 7.78407,-29.87839 -1.51002,-11.11249 -6.66824,-20.01844 -15.47468,-26.71786 -8.8064,-6.6994 -18.76585,-9.29408 -29.87838,-7.78406 -11.11249,1.51002 -20.01845,6.66825 -26.71786,15.47466 -6.69943,8.8064 -9.29408,18.7659 -7.78404,29.8784 1.51001,11.1125 6.66823,20.01847 15.47463,26.71782 z"
     id="path5733-1"
     inkscape:connector-curvature="0"
     sodipodi:nodetypes="cccccccccccssscccscccccccccccccccccccscccccsssssssss"
     style="stroke-width:0.55325174" />
  <path
     sodipodi:type="star"
     style="fill:#000000;fill-opacity:1;stroke:none;stroke-width:20.54146957;stroke-linecap:butt;stroke-miterlimit:4;stroke-dasharray:none;stroke-dashoffset:0;stroke-opacity:1"
     id="path6301"
     sodipodi:sides="3"
     sodipodi:cx="400.99265"
     sodipodi:cy="-271.88507"
     sodipodi:r1="102.10308"
     sodipodi:r2="51.05154"
     sodipodi:arg1="0.53691074"
     sodipodi:arg2="1.5841083"
     inkscape:flatsided="true"
     inkscape:rounded="0"
     inkscape:randomized="0"
     d="M 488.7291,-219.66099 311.89704,-222.01511 402.3518,-373.9791 Z"
     inkscape:transform-center-x="-0.093139091"
     inkscape:transform-center-y="-36.365078"
     transform="matrix(1.4276527,-0.02083086,0.02083086,1.4276527,-92.860817,179.47181)" />
</svg>
